<?xml version="1.0" encoding="utf-8"?>
<!-- Generator: Adobe Illustrator 19.1.0, SVG Export Plug-In . SVG Version: 6.00 Build 0)  -->
<!DOCTYPE svg PUBLIC "-//W3C//DTD SVG 1.1//EN" "http://www.w3.org/Graphics/SVG/1.1/DTD/svg11.dtd">
<svg version="1.1" id="Layer_1" xmlns:xl="http://www.w3.org/1999/xlink"
	 xmlns="http://www.w3.org/2000/svg" xmlns:xlink="http://www.w3.org/1999/xlink" x="0px" y="0px" viewBox="-248 266 526 238"
	 enable-background="new -248 266 526 238" xml:space="preserve">
<g>
	<g>
		<rect x="-77.1" y="280.8" fill="none" width="88" height="32.2"/>
		<text transform="matrix(1 0 0 1 -77.0545 301.3926)" font-family="'Helvetica'" font-size="24px">Open W</text>
		<rect x="10.1" y="280.8" fill="none" width="70.7" height="32.2"/>
		<text transform="matrix(1 0 0 1 10.0978 301.3926)" font-family="'Helvetica'" font-size="24px">ater W</text>
		<rect x="80.4" y="280.8" fill="none" width="26.7" height="32.2"/>
		<text transform="matrix(1 0 0 1 80.3517 301.3926)" font-family="'Helvetica'" font-size="24px">eb</text>
		<rect x="-228" y="309.4" fill="#D8E7D1" width="114.8" height="54"/>
		
			<rect x="-228" y="309.4" fill="none" stroke="#000000" stroke-linecap="round" stroke-linejoin="round" width="114.8" height="54"/>
		<rect x="-200.8" y="323.1" fill="none" width="11.3" height="16.1"/>
		<text transform="matrix(1 0 0 1 -200.7518 333.3926)" font-family="'Helvetica'" font-size="12px">W</text>
		<rect x="-189.9" y="323.1" fill="none" width="52.7" height="16.1"/>
		<text transform="matrix(1 0 0 1 -189.8651 333.3926)" enable-background="new    "><tspan x="0" y="0" font-family="'Helvetica'" font-size="12px">ater</tspan><tspan x="20.7" y="0" font-family="'Helvetica'" font-size="12px" letter-spacing="3"> </tspan><tspan x="27.3" y="0" font-family="'Helvetica'" font-size="12px">Data </tspan></text>
		<rect x="-191.3" y="337.1" fill="none" width="41.4" height="16.1"/>
		<text transform="matrix(1 0 0 1 -191.3094 347.3926)" font-family="'Helvetica'" font-size="12px">Catalog</text>
		<rect x="-104.7" y="309.4" fill="#F5E2D1" width="114.8" height="54"/>
		
			<rect x="-104.7" y="309.4" fill="none" stroke="#000000" stroke-linecap="round" stroke-linejoin="round" width="114.8" height="54"/>
		<rect x="-85.5" y="323.1" fill="none" width="11.3" height="16.1"/>
		<text transform="matrix(1 0 0 1 -85.486 333.3926)" font-family="'Helvetica'" font-size="12px">W</text>
		<rect x="-74.6" y="323.1" fill="none" width="65.4" height="16.1"/>
		<text transform="matrix(1 0 0 1 -74.5992 333.3926)" font-family="'Helvetica'" font-size="12px">ater Data as</text>
		<rect x="-72.4" y="337.1" fill="none" width="50" height="16.1"/>
		<text transform="matrix(1 0 0 1 -72.3698 347.3926)" font-family="'Helvetica'" font-size="12px">a Service</text>
		<rect x="18.5" y="309.4" fill="#BCBAA2" width="114.8" height="54"/>
		
			<rect x="18.5" y="309.4" fill="none" stroke="#000000" stroke-linecap="round" stroke-linejoin="round" width="114.8" height="54"/>
		<rect x="50.9" y="323.1" fill="none" width="53.4" height="16.1"/>
		<text transform="matrix(1 0 0 1 50.897 333.3926)" enable-background="new    "><tspan x="0" y="0" font-family="'Helvetica'" font-size="12px">Enrichin</tspan><tspan x="46.7" y="0" font-family="'Helvetica'" font-size="12px">g </tspan></text>
		<rect x="45.8" y="337.1" fill="none" width="11.3" height="16.1"/>
		<text transform="matrix(1 0 0 1 45.7877 347.3926)" font-family="'Helvetica'" font-size="12px">W</text>
		<rect x="56.7" y="337.1" fill="none" width="49.4" height="16.1"/>
		<text transform="matrix(1 0 0 1 56.6744 347.3926)" font-family="'Helvetica'" font-size="12px">ater Data</text>
		<rect x="141.8" y="309.4" fill="#A9B6C2" width="114.8" height="54"/>
		
			<rect x="141.8" y="309.4" fill="none" stroke="#000000" stroke-linecap="round" stroke-linejoin="round" width="114.8" height="54"/>
		<rect x="160.2" y="323.1" fill="none" width="78" height="16.1"/>
		<text transform="matrix(1 0 0 1 160.1716 333.3926)" font-family="'Helvetica'" font-size="12px">Community for</text>
		<rect x="151.8" y="337.1" fill="none" width="11.3" height="16.1"/>
		<text transform="matrix(1 0 0 1 151.822 347.3926)" font-family="'Helvetica'" font-size="12px">W</text>
		<rect x="162.7" y="337.1" fill="none" width="56" height="16.1"/>
		<text transform="matrix(1 0 0 1 162.7087 347.3926)" enable-background="new    "><tspan x="0" y="0" font-family="'Helvetica'" font-size="12px">ater</tspan><tspan x="20.7" y="0" font-family="'Helvetica'" font-size="12px" letter-spacing="3"> </tspan><tspan x="27.3" y="0" font-family="'Helvetica'" font-size="12px">Data, </tspan></text>
		<rect x="218.5" y="337.1" fill="none" width="7.3" height="16.1"/>
		<text transform="matrix(1 0 0 1 218.5251 347.3926)" font-family="'Helvetica'" font-size="12px">T</text>
		<rect x="224.5" y="337.1" fill="none" width="22" height="16.1"/>
		<text transform="matrix(1 0 0 1 224.5251 347.3926)" font-family="'Helvetica'" font-size="12px">ools</text>
		<rect x="-228" y="363.4" fill="#FFFFFF" width="114.8" height="39"/>
		
			<rect x="-228" y="363.4" fill="none" stroke="#000000" stroke-linecap="round" stroke-linejoin="round" width="114.8" height="39"/>
		<rect x="-203" y="369.6" fill="none" width="68" height="16.1"/>
		<text transform="matrix(1 0 0 1 -202.9783 379.8926)" enable-background="new    "><tspan x="0" y="0" font-family="'Helvetica'" font-size="12px">Find</tspan><tspan x="23.3" y="0" font-family="'Helvetica'" font-size="12px" letter-spacing="3"> </tspan><tspan x="30" y="0" font-family="'Helvetica'" font-size="12px">Source </tspan></text>
		<rect x="-183.3" y="383.6" fill="none" width="25.3" height="16.1"/>
		<text transform="matrix(1 0 0 1 -183.3026 393.8926)" font-family="'Helvetica'" font-size="12px">Data</text>
		<rect x="-228" y="402.4" fill="#FFFFFF" width="114.8" height="39"/>
		
			<rect x="-228" y="402.4" fill="none" stroke="#000000" stroke-linecap="round" stroke-linejoin="round" width="114.8" height="39"/>
		<rect x="-211.9" y="415.6" fill="none" width="39.4" height="16.1"/>
		<text transform="matrix(1 0 0 1 -211.8729 425.9351)" enable-background="new    "><tspan x="0" y="0" font-family="'Helvetica'" font-size="12px">Creat</tspan><tspan x="32.7" y="0" font-family="'Helvetica'" font-size="12px">e </tspan></text>
		<rect x="-172.7" y="415.6" fill="none" width="43.3" height="16.1"/>
		<text transform="matrix(1 0 0 1 -172.7322 425.9351)" font-family="'Helvetica'" font-size="12px">Themes</text>
		<rect x="-228" y="441.5" fill="#FFFFFF" width="114.8" height="39"/>
		
			<rect x="-228" y="441.5" fill="none" stroke="#000000" stroke-linecap="round" stroke-linejoin="round" width="114.8" height="39"/>
		<rect x="-215.3" y="447.7" fill="none" width="89.4" height="16.1"/>
		<text transform="matrix(1 0 0 1 -215.3211 457.9777)" font-family="'Helvetica'" font-size="12px">Recruit / Engage</text>
		<rect x="-193.3" y="461.7" fill="none" width="45.4" height="16.1"/>
		<text transform="matrix(1 0 0 1 -193.3045 471.9777)" font-family="'Helvetica'" font-size="12px">Partners</text>
		<rect x="-104.7" y="363.4" fill="#FFFFFF" width="114.8" height="39"/>
		
			<rect x="-104.7" y="363.4" fill="none" stroke="#000000" stroke-linecap="round" stroke-linejoin="round" width="114.8" height="39"/>
		<rect x="-77.4" y="369.6" fill="none" width="63.4" height="16.1"/>
		<text transform="matrix(1 0 0 1 -77.3766 379.8926)" enable-background="new    "><tspan x="0" y="0" font-family="'Helvetica'" font-size="12px">Consensu</tspan><tspan x="57.4" y="0" font-family="'Helvetica'" font-size="12px">s </tspan></text>
		<rect x="-74.7" y="383.6" fill="none" width="54.7" height="16.1"/>
		<text transform="matrix(1 0 0 1 -74.7106 393.8926)" font-family="'Helvetica'" font-size="12px">Standards</text>
		<rect x="-104.7" y="402.4" fill="#FFFFFF" width="114.8" height="39"/>
		
			<rect x="-104.7" y="402.4" fill="none" stroke="#000000" stroke-linecap="round" stroke-linejoin="round" width="114.8" height="39"/>
		<rect x="-92.6" y="408.6" fill="none" width="8" height="16.1"/>
		<text transform="matrix(1 0 0 1 -92.6168 418.9351)" font-family="'Helvetica'" font-size="12px">V</text>
		<rect x="-84.8" y="408.6" fill="none" width="86.1" height="16.1"/>
		<text transform="matrix(1 0 0 1 -84.8239 418.9351)" enable-background="new    "><tspan x="0" y="0" font-family="'Helvetica'" font-size="12px">isualization</tspan><tspan x="59.4" y="0" font-family="'Helvetica'" font-size="12px" letter-spacing="3"> </tspan><tspan x="66" y="0" font-family="'Helvetica'" font-size="12px">and </tspan></text>
		<rect x="-69" y="422.6" fill="none" width="43.3" height="16.1"/>
		<text transform="matrix(1 0 0 1 -69.0299 432.9351)" font-family="'Helvetica'" font-size="12px">Delivery</text>
		<rect x="-104.7" y="441.5" fill="#FFFFFF" width="114.8" height="39"/>
		
			<rect x="-104.7" y="441.5" fill="none" stroke="#000000" stroke-linecap="round" stroke-linejoin="round" width="114.8" height="39"/>
		<rect x="-97.1" y="454.7" fill="none" width="99.4" height="16.1"/>
		<text transform="matrix(1 0 0 1 -97.0582 464.9777)" font-family="'Helvetica'" font-size="12px">Catalog and Serve</text>
		<rect x="18.5" y="363.4" fill="#FFFFFF" width="114.8" height="39"/>
		
			<rect x="18.5" y="363.4" fill="none" stroke="#000000" stroke-linecap="round" stroke-linejoin="round" width="114.8" height="39"/>
		<rect x="31.6" y="376.6" fill="none" width="88.7" height="16.1"/>
		<text transform="matrix(1 0 0 1 31.5582 386.8926)" font-family="'Helvetica'" font-size="12px">Network Routing</text>
		<rect x="18.5" y="402.4" fill="#FFFFFF" width="114.8" height="39"/>
		
			<rect x="18.5" y="402.4" fill="none" stroke="#000000" stroke-linecap="round" stroke-linejoin="round" width="114.8" height="39"/>
		<rect x="31.2" y="415.6" fill="none" width="89.4" height="16.1"/>
		<text transform="matrix(1 0 0 1 31.2183 425.9349)" font-family="'Helvetica'" font-size="12px">Coupling Models</text>
		<rect x="18.5" y="441.5" fill="#FFFFFF" width="114.8" height="39"/>
		
			<rect x="18.5" y="441.5" fill="none" stroke="#000000" stroke-linecap="round" stroke-linejoin="round" width="114.8" height="39"/>
		<rect x="141.8" y="363.4" fill="#FFFFFF" width="114.8" height="39"/>
		
			<rect x="141.8" y="363.4" fill="none" stroke="#000000" stroke-linecap="round" stroke-linejoin="round" width="114.8" height="39"/>
		<rect x="157.8" y="369.6" fill="none" width="86" height="16.1"/>
		<text transform="matrix(1 0 0 1 157.8308 379.8926)" enable-background="new    "><tspan x="0" y="0" font-family="'Helvetica'" font-size="12px">Marketplace</tspan><tspan x="65.4" y="0" font-family="'Helvetica'" font-size="12px" letter-spacing="3"> </tspan><tspan x="72" y="0" font-family="'Helvetica'" font-size="12px">for </tspan></text>
		<rect x="169.5" y="383.6" fill="none" width="59.4" height="16.1"/>
		<text transform="matrix(1 0 0 1 169.491 393.8926)" font-family="'Helvetica'" font-size="12px">Knowledge</text>
		<rect x="141.8" y="402.4" fill="#FFFFFF" width="114.8" height="39"/>
		
			<rect x="141.8" y="402.4" fill="none" stroke="#000000" stroke-linecap="round" stroke-linejoin="round" width="114.8" height="39"/>
		<rect x="157.5" y="415.6" fill="none" width="38" height="16.1"/>
		<text transform="matrix(1 0 0 1 157.488 425.9351)" enable-background="new    "><tspan x="0" y="0" font-family="'Helvetica'" font-size="12px">Usag</tspan><tspan x="31.3" y="0" font-family="'Helvetica'" font-size="12px">e </tspan></text>
		<rect x="195.3" y="415.6" fill="none" width="7.3" height="16.1"/>
		<text transform="matrix(1 0 0 1 195.2985 425.9351)" font-family="'Helvetica'" font-size="12px">T</text>
		<rect x="202.2" y="415.6" fill="none" width="38.7" height="16.1"/>
		<text transform="matrix(1 0 0 1 202.1892 425.9351)" font-family="'Helvetica'" font-size="12px">racking</text>
		<rect x="141.8" y="441.5" fill="#FFFFFF" width="114.8" height="39"/>
		
			<rect x="141.8" y="441.5" fill="none" stroke="#000000" stroke-linecap="round" stroke-linejoin="round" width="114.8" height="39"/>
		<rect x="160.8" y="454.7" fill="none" width="76.7" height="16.1"/>
		<text transform="matrix(1 0 0 1 160.8337 464.9777)" font-family="'Helvetica'" font-size="12px">Best Practices</text>
		<text transform="matrix(1 0 0 1 47.2257 456.9993)"><tspan x="0" y="0" font-family="'Helvetica'" font-size="12px">Geospatial </tspan><tspan x="0.3" y="14.4" font-family="'Helvetica'" font-size="12px">Framework</tspan></text>
	</g>
</g>
</svg>
